HIERARCHY
ROOT joint_Root
{
	OFFSET 0.0 0.0 0.0
	CHANNELS 6 Xposition Yposition Zposition Zrotation Xrotation Yrotation 
	JOINT Hips
	{
		OFFSET -0.726466 93.3139 -2.00062
		CHANNELS 6 Xposition Yposition Zposition Zrotation Xrotation Yrotation 
		JOINT Spine
		{
			OFFSET 15.7357 0.0 0.0
			CHANNELS 6 Xposition Yposition Zposition Zrotation Xrotation Yrotation 
			JOINT Chest
			{
				OFFSET 8.98455 -0.406207 0.0
				CHANNELS 6 Xposition Yposition Zposition Zrotation Xrotation Yrotation 
				JOINT Neck
				{
					OFFSET 16.3773 0.0 0.0
					CHANNELS 6 Xposition Yposition Zposition Zrotation Xrotation Yrotation 
					JOINT Head
					{
						OFFSET 6.45672 0.0 0.0
						CHANNELS 6 Xposition Yposition Zposition Zrotation Xrotation Yrotation 
						End Site
						{
							OFFSET 0.0 0.0 0.0
						}
					}
				}
				JOINT Shoulder_L
				{
					OFFSET 12.9942 -0.242716 4.98039
					CHANNELS 6 Xposition Yposition Zposition Zrotation Xrotation Yrotation 
					JOINT UpperArm_L
					{
						OFFSET 5.34809 0.0 0.0
						CHANNELS 6 Xposition Yposition Zposition Zrotation Xrotation Yrotation 
						JOINT LowerArm_L
						{
							OFFSET 24.3286 1.87007e-05 0.0
							CHANNELS 6 Xposition Yposition Zposition Zrotation Xrotation Yrotation 
							JOINT Hand_L
							{
								OFFSET 22.2916 0.0 0.0
								CHANNELS 6 Xposition Yposition Zposition Zrotation Xrotation Yrotation 
								End Site
								{
									OFFSET 0.0 0.0 0.0
								}
							}
						}
					}
				}
				JOINT Shoulder_R
				{
					OFFSET 12.9945 -0.242716 -4.98039
					CHANNELS 6 Xposition Yposition Zposition Zrotation Xrotation Yrotation 
					JOINT UpperArm_R
					{
						OFFSET -5.34813 0.0 0.0
						CHANNELS 6 Xposition Yposition Zposition Zrotation Xrotation Yrotation 
						JOINT LowerArm_R
						{
							OFFSET -24.3289 0.000322201 0.0
							CHANNELS 6 Xposition Yposition Zposition Zrotation Xrotation Yrotation 
							JOINT Hand_R
							{
								OFFSET -22.2915 -0.000108084 0.0
								CHANNELS 6 Xposition Yposition Zposition Zrotation Xrotation Yrotation 
								End Site
								{
									OFFSET 0.0 0.0 0.0
								}
							}
						}
					}
				}
			}
		}
		JOINT UpperLeg_L
		{
			OFFSET -2.19248 -6.46944 0.0
			CHANNELS 6 Xposition Yposition Zposition Zrotation Xrotation Yrotation 
			JOINT LowerLeg_L
			{
				OFFSET 39.0811 0.0 -1.23785e-05
				CHANNELS 6 Xposition Yposition Zposition Zrotation Xrotation Yrotation 
				JOINT Foot_L
				{
					OFFSET 40.9854 0.0 -1.26872e-05
					CHANNELS 6 Xposition Yposition Zposition Zrotation Xrotation Yrotation 
					JOINT Toes_L
					{
						OFFSET 11.7543 0.0 0.0
						CHANNELS 6 Xposition Yposition Zposition Zrotation Xrotation Yrotation 
						End Site
						{
							OFFSET 0.0 0.0 0.0
						}
					}
				}
			}
		}
		JOINT UpperLeg_R
		{
			OFFSET -2.19251 6.46944 0.0
			CHANNELS 6 Xposition Yposition Zposition Zrotation Xrotation Yrotation 
			JOINT LowerLeg_R
			{
				OFFSET -39.0811 -0.00228153 -0.0401928
				CHANNELS 6 Xposition Yposition Zposition Zrotation Xrotation Yrotation 
				JOINT Foot_R
				{
					OFFSET -40.9854 0.0 0.0
					CHANNELS 6 Xposition Yposition Zposition Zrotation Xrotation Yrotation 
					JOINT Toes_R
					{
						OFFSET -11.7543 0.0 0.0
						CHANNELS 6 Xposition Yposition Zposition Zrotation Xrotation Yrotation 
						End Site
						{
							OFFSET 0.0 0.0 0.0
						}
					}
				}
			}
		}
	}
}
MOTION
Frames:	8
Frame Time:	0.0333333
0.000000 0.000000 0.000000 0.000000 0.000000 -0.000000 -2.289170 93.818100 26.890200 -85.200600 9.174800 173.219000 15.735700 0.000005 -0.000001 115.537000 79.913400 -115.145000 8.984550 -0.406207 -0.000000 10.494300 8.646320 -0.010635 16.377300 -0.000001 -0.000001 3.715050 -1.697570 2.302820 6.456720 -0.000001 -0.000000 -4.280940 -5.568590 -2.423950 12.994200 -0.242716 4.980390 -87.020000 -6.547520 -65.461500 5.348090 -0.000007 -0.000001 -71.238600 17.939300 17.441700 24.328600 0.000019 0.000005 0.132338 0.077341 -59.579700 22.291600 -0.000001 0.000005 -1.776410 5.606720 -11.751400 12.994500 -0.242716 -4.980390 90.267800 -0.691702 -68.831100 -5.348130 -0.000001 -0.000004 -48.450500 20.659600 -31.620700 -24.328900 0.000322 -0.000009 -4.534270 -1.496000 -71.771900 -22.291500 -0.000108 -0.000004 3.440860 5.577100 -10.057500 -2.192480 -6.469440 -0.000000 -177.824000 -8.141620 -28.575100 39.081100 -0.000007 -0.000012 0.001733 -0.005688 16.946300 40.985400 -0.000006 -0.000013 1.130390 -1.499400 -65.401300 11.754300 -0.000000 0.000003 -0.006326 -0.073781 -19.579900 -2.192510 6.469440 -0.000001 174.563000 11.546100 -170.913000 -39.081100 -0.002282 -0.040193 0.125752 -0.229593 28.072000 -40.985400 0.000008 0.000006 -4.827480 5.987060 -26.496500 -11.754300 -0.000006 -0.000006 -0.020285 -0.168864 -23.472800
0.000000 0.000000 0.000000 0.000000 0.000000 -0.000000 -2.339580 93.124100 16.969100 -83.432200 10.944600 172.762000 15.735700 0.000005 -0.000001 119.722000 80.075900 -119.085000 8.984550 -0.406207 -0.000000 9.519030 9.793580 0.457656 16.377300 -0.000001 -0.000001 3.719130 -1.367450 2.438810 6.456720 -0.000001 -0.000000 -3.198950 -5.520630 -2.403900 12.994200 -0.242716 4.980390 -87.097700 -6.333930 -65.318800 5.348090 -0.000007 -0.000001 -70.078400 17.460400 17.727700 24.328600 0.000019 0.000005 1.127490 0.613180 -61.464600 22.291600 -0.000001 0.000005 -1.891970 5.599090 -11.288200 12.994500 -0.242716 -4.980390 90.351400 -0.927667 -69.254200 -5.348130 -0.000001 -0.000004 -50.025900 22.291400 -29.548400 -24.328900 0.000322 -0.000009 -4.411080 -1.550200 -70.665900 -22.291500 -0.000108 -0.000004 3.801290 5.583000 -10.372400 -2.192480 -6.469440 -0.000000 -175.874000 -10.066300 -26.455500 39.081100 -0.000007 -0.000012 -0.001095 0.009346 6.675710 40.985400 -0.000006 -0.000013 -0.511175 -6.407250 -67.551500 11.754300 -0.000000 0.000003 -0.007427 -0.083296 -19.968100 -2.192510 6.469440 -0.000001 174.039000 9.808100 -169.639000 -39.081100 -0.002282 -0.040193 0.150053 -0.212812 34.591300 -40.985400 0.000008 0.000006 -3.310940 3.342660 -33.218500 -11.754300 -0.000006 -0.000006 -0.021709 -0.176578 -23.790800
0.000000 0.000000 0.000000 0.000000 0.000000 -0.000000 -2.673410 91.655400 7.182270 -82.889400 11.666000 172.735000 15.735700 0.000005 -0.000001 119.303000 80.375400 -118.726000 8.984550 -0.406207 -0.000000 9.062890 9.377680 0.410186 16.377300 -0.000001 -0.000001 4.088140 -0.611718 2.513440 6.456720 -0.000001 -0.000000 -2.895480 -5.174930 -1.974660 12.994200 -0.242716 4.980390 -87.601500 -5.101210 -64.775100 5.348090 -0.000007 -0.000001 -67.448100 16.812800 15.430100 24.328600 0.000019 0.000005 0.650120 0.342450 -62.224700 22.291600 -0.000001 0.000005 -1.839610 5.602310 -11.480000 12.994500 -0.242716 -4.980390 90.193300 -0.532813 -70.058100 -5.348130 -0.000001 -0.000004 -51.591100 23.813200 -27.050900 -24.328900 0.000322 -0.000009 -3.793610 -1.572950 -67.497000 -22.291500 -0.000108 -0.000004 4.232480 5.584220 -10.439400 -2.192480 -6.469440 -0.000000 -177.700000 -14.424700 -28.384800 39.081100 -0.000007 -0.000012 0.002888 -0.016696 9.814650 40.985400 -0.000006 -0.000013 0.194553 -10.909400 -69.111900 11.754300 -0.000000 0.000003 -0.006862 -0.078481 -19.771600 -2.192510 6.469440 -0.000001 174.435000 6.172890 -170.138000 -39.081100 -0.002282 -0.040193 0.215166 -0.220090 43.913900 -40.985400 0.000008 0.000006 0.368345 -2.319820 -36.189300 -11.754300 -0.000006 -0.000006 -0.021889 -0.177534 -23.830200
0.000000 0.000000 0.000000 0.000000 0.000000 -0.000000 -3.220220 89.488800 -2.285810 -86.214000 10.698700 173.779000 15.735700 0.000005 -0.000001 112.766000 80.516000 -113.344000 8.984550 -0.406207 -0.000000 9.819850 7.285340 -1.782250 16.377300 -0.000001 -0.000001 4.538070 -0.538643 2.940620 6.456720 -0.000001 -0.000000 -4.396020 -4.476960 -1.822180 12.994200 -0.242716 4.980390 -88.290300 -3.713610 -65.258800 5.348090 -0.000007 -0.000001 -64.257800 15.445200 10.624400 24.328600 0.000019 0.000005 -0.528984 -0.267669 -63.116600 22.291600 -0.000001 0.000005 -1.290730 5.604080 -11.589600 12.994500 -0.242716 -4.980390 89.802700 0.552051 -70.342800 -5.348130 -0.000001 -0.000004 -51.915700 25.183200 -24.154500 -24.328900 0.000322 -0.000009 -2.690640 -1.312380 -64.000500 -22.291500 -0.000108 -0.000004 4.290310 5.586070 -10.542200 -2.192480 -6.469440 -0.000000 177.535000 -14.625600 -36.565800 39.081100 -0.000007 -0.000012 0.259160 -0.462680 29.254800 40.985400 -0.000006 -0.000013 5.127020 -7.793980 -60.060400 11.754300 -0.000000 0.000003 -0.014530 -0.134849 -22.077900 -2.192510 6.469440 -0.000001 171.828000 4.851710 -172.661000 -39.081100 -0.002282 -0.040193 0.284868 -0.184093 56.830600 -40.985400 0.000008 0.000006 5.551230 -7.502430 -36.156800 -11.754300 -0.000006 -0.000006 -0.021297 -0.174371 -23.699700
0.000000 0.000000 0.000000 0.000000 0.000000 -0.000000 -3.640740 86.326800 -11.823600 -88.764600 8.674500 175.008000 15.735700 0.000005 -0.000001 105.529000 80.482000 -106.941000 8.984550 -0.406207 -0.000000 10.669100 5.024970 -3.293980 16.377300 -0.000001 -0.000001 3.154760 -1.079410 3.057400 6.456720 -0.000001 -0.000000 -4.564010 -3.803360 -0.809391 12.994200 -0.242716 4.980390 -88.747600 -2.815070 -66.004300 5.348090 -0.000007 -0.000001 -60.473500 14.558800 4.265670 24.328600 0.000019 0.000005 -3.719150 -1.718390 -65.223100 22.291600 -0.000001 0.000005 -0.740980 5.608030 -11.831500 12.994500 -0.242716 -4.980390 89.348900 1.748310 -69.572000 -5.348130 -0.000001 -0.000004 -51.663400 27.080000 -19.761500 -24.328900 0.000322 -0.000009 -2.552950 -1.414660 -61.026200 -22.291500 -0.000108 -0.000004 3.517710 5.586250 -10.551800 -2.192480 -6.469440 -0.000000 176.474000 -10.079400 -39.329500 39.081100 -0.000007 -0.000012 -0.128103 0.120450 46.764400 40.985400 -0.000006 -0.000013 2.823070 -8.630710 -63.395000 11.754300 -0.000000 0.000003 -0.003940 -0.050826 -18.644200 -2.192510 6.469440 -0.000001 170.901000 4.096150 -177.104000 -39.081100 -0.002282 -0.040193 0.267478 -0.081748 72.819900 -40.985400 0.000008 0.000006 7.707940 -9.667300 -37.338600 -11.754300 -0.000006 -0.000006 -0.021456 -0.175223 -23.734900
0.000000 0.000000 0.000000 0.000000 0.000000 -0.000000 -4.118970 83.395400 -20.770700 -91.335400 6.087060 177.330000 15.735700 0.000005 -0.000001 97.853900 79.637500 -99.940900 8.984550 -0.406207 -0.000000 12.828500 2.712260 -4.479380 16.377300 -0.000001 -0.000001 1.392390 -1.850060 2.417280 6.456720 -0.000001 -0.000000 -4.795890 -3.458070 0.524388 12.994200 -0.242716 4.980390 -89.063600 -2.220770 -67.130900 5.348090 -0.000007 -0.000001 -56.727600 13.655300 -5.222400 24.328600 0.000019 0.000005 -6.041500 -2.611350 -66.709000 22.291600 -0.000001 0.000005 0.312105 5.621110 -12.697700 12.994500 -0.242716 -4.980390 89.128100 2.262660 -68.919800 -5.348130 -0.000001 -0.000004 -53.416900 27.767500 -14.158400 -24.328900 0.000322 -0.000009 -4.568500 -3.125150 -55.712900 -22.291500 -0.000108 -0.000004 4.270230 5.597680 -11.202100 -2.192480 -6.469440 -0.000000 174.001000 -8.267490 -36.479300 39.081100 -0.000007 -0.000012 -0.580221 0.357247 58.380400 40.985400 -0.000006 -0.000013 1.852510 -8.545810 -75.803300 11.754300 -0.000000 0.000003 -0.000045 -0.000518 -16.597700 -2.192510 6.469440 -0.000001 170.569000 3.799120 176.498000 -39.081100 -0.002282 -0.040193 0.155716 -0.001132 89.606200 -40.985400 0.000008 0.000006 8.667960 -6.606100 -39.028900 -11.754300 -0.000006 -0.000006 -0.023166 -0.184235 -24.106700
0.000000 0.000000 0.000000 0.000000 0.000000 -0.000000 -4.470520 82.000300 -28.948500 -91.746200 4.578830 176.926000 15.735700 0.000005 -0.000001 93.018000 79.695300 -95.045300 8.984550 -0.406207 -0.000000 12.837000 0.984850 -4.165360 16.377300 -0.000001 -0.000001 1.618440 -2.063350 1.954320 6.456720 -0.000001 -0.000000 -4.469540 -2.728270 0.309484 12.994200 -0.242716 4.980390 -88.903600 -2.722650 -68.054300 5.348090 -0.000007 -0.000001 -55.109200 11.890300 -14.706700 24.328600 0.000019 0.000005 -4.864580 -2.006270 -67.646400 22.291600 -0.000001 0.000005 -0.838728 5.622390 -12.778000 12.994500 -0.242716 -4.980390 89.114300 2.208390 -68.139000 -5.348130 -0.000001 -0.000004 -55.282100 28.889200 -9.765910 -24.328900 0.000322 -0.000009 -3.355950 -2.919800 -48.990800 -22.291500 -0.000108 -0.000004 4.656270 5.599840 -11.336500 -2.192480 -6.469440 -0.000000 173.498000 -9.751230 -32.064000 39.081100 -0.000007 -0.000012 -0.750354 0.397122 62.112000 40.985400 -0.000006 -0.000013 2.220480 -6.449810 -84.388500 11.754300 -0.000000 0.000003 -0.000117 -0.001172 -16.622400 -2.192510 6.469440 -0.000001 172.343000 3.922550 164.556000 -39.081100 -0.002282 -0.040193 0.023496 0.004435 102.642000 -40.985400 0.000008 0.000006 7.414680 -4.490030 -39.593000 -11.754300 -0.000006 -0.000006 -0.022763 -0.182138 -24.020200
0.000000 0.000000 0.000000 0.000000 0.000000 -0.000000 -4.280680 81.965300 -37.171700 -90.028500 2.319130 175.777000 15.735700 0.000005 -0.000001 87.008400 80.052900 -88.007000 8.984550 -0.406207 -0.000000 12.093900 -1.066730 -1.883780 16.377300 -0.000001 -0.000001 2.210180 -2.289940 0.997082 6.456720 -0.000001 -0.000000 -3.352000 -1.529440 0.157012 12.994200 -0.242716 4.980390 -88.422400 -4.061800 -68.750700 5.348090 -0.000007 -0.000001 -54.081000 11.175800 -21.689300 24.328600 0.000019 0.000005 -3.479600 -1.206970 -70.891700 22.291600 -0.000001 0.000005 -1.600870 5.614980 -12.284300 12.994500 -0.242716 -4.980390 89.178700 1.904730 -66.671100 -5.348130 -0.000001 -0.000004 -56.278100 29.860900 -4.711430 -24.328900 0.000322 -0.000009 -1.522320 -1.323050 -48.968000 -22.291500 -0.000108 -0.000004 3.601840 5.602820 -11.512000 -2.192480 -6.469440 -0.000000 176.249000 -9.470690 -25.223000 39.081100 -0.000007 -0.000012 -0.850768 0.487530 60.187600 40.985400 -0.000006 -0.000013 1.838740 -4.716740 -90.091900 11.754300 -0.000000 0.000003 -0.000142 -0.001390 -16.630500 -2.192510 6.469440 -0.000001 176.917000 6.687010 152.938000 -39.081100 -0.002282 -0.040193 -0.106919 -0.036508 108.280000 -40.985400 0.000008 0.000006 8.504450 -7.656510 -43.145700 -11.754300 -0.000006 -0.000006 -0.021364 -0.174728 -23.714500
